# xmcd
#
# Track frame offsets:
#	150
#	10056
#	28009
#	38688
#	52490
#	78508
#	90363
#	101023
#	119762
#	137510
#	152219
#	160096
#	170837
#	184295
#	203856
#	217535
#	226924
#	238439
#	250521
#	262823
#
# Disc length: 3621 seconds
#
# Revision: 1
# Processed by: cddbd v1.5.2PL0 Copyright (c) Steve Scherf et al.
# Submitted via: audiograbber 1.83.01
#
DISCID=0b0e2314
DTITLE=The Cruncher - Schlicktown Surf
DYEAR=2016
DGENRE=Surf
TTITLE0=Pow-Wow
TTITLE1=Long Walk Back
TTITLE2=El Azul
TTITLE3=Lost Island
TTITLE4=Skyrider
TTITLE5=White Rabbit
TTITLE6=Forbidden City
TTITLE7=My Hometown
TTITLE8=Going Back To Memphis
TTITLE9=Taboo
TTITLE10=Flash Flood
TTITLE11=The Spanish Bit
TTITLE12=I Won´t Back Down
TTITLE13=Don´t Be Cruel
TTITLE14=Genesis
TTITLE15=High Octane
TTITLE16=Squad Car
TTITLE17=Surfer´s Blues
TTITLE18=Jezebel
TTITLE19=Untitled #1
EXTD=
EXTT0=
EXTT1=
EXTT2=
EXTT3=
EXTT4=
EXTT5=
EXTT6=
EXTT7=
EXTT8=
EXTT9=
EXTT10=
EXTT11=
EXTT12=
EXTT13=
EXTT14=
EXTT15=
EXTT16=
EXTT17=
EXTT18=
EXTT19=
PLAYORDER=
